<?xml version="1.0" encoding="utf-8"?>
<!-- Generator: Adobe Illustrator 18.0.0, SVG Export Plug-In . SVG Version: 6.00 Build 0)  -->
<!DOCTYPE svg PUBLIC "-//W3C//DTD SVG 1.1//EN" "http://www.w3.org/Graphics/SVG/1.1/DTD/svg11.dtd">
<svg version="1.1" id="Layer_1" xmlns="http://www.w3.org/2000/svg" xmlns:xlink="http://www.w3.org/1999/xlink" x="0px" y="0px"
	 viewBox="0 0 20.7 16.9" enable-background="new 0 0 20.7 16.9" xml:space="preserve">
<path fill="#55B0E3" d="M8.2,16.9c-0.4,0-0.7-0.1-1-0.4L0.4,9.8c-0.6-0.6-0.6-1.5,0-2.1c0.6-0.6,1.5-0.6,2.1,0l6.7,6.7
	c0.6,0.6,0.6,1.5,0,2.1C8.9,16.8,8.5,16.9,8.2,16.9z"/>
<path fill="#55B0E3" d="M8.2,16.9c-0.3,0-0.6-0.1-0.9-0.3c-0.6-0.5-0.7-1.4-0.2-2l11-14c0.5-0.6,1.4-0.7,2-0.2
	c0.6,0.5,0.7,1.4,0.2,2l-11,14C9,16.7,8.6,16.9,8.2,16.9z"/>
</svg>
