<?xml version="1.0" encoding="utf-8"?>
<!-- Generator: Adobe Illustrator 18.0.0, SVG Export Plug-In . SVG Version: 6.00 Build 0)  -->
<!DOCTYPE svg PUBLIC "-//W3C//DTD SVG 1.1//EN" "http://www.w3.org/Graphics/SVG/1.1/DTD/svg11.dtd">
<svg version="1.1" id="Layer_1" xmlns="http://www.w3.org/2000/svg" xmlns:xlink="http://www.w3.org/1999/xlink" x="0px" y="0px"
	 viewBox="28.7 337.7 560.2 130.6" enable-background="new 28.7 337.7 560.2 130.6" xml:space="preserve">
<g>
	<path fill="#C03724" d="M28.7,339h20.4v103.3H28.7V339L28.7,339z M104.8,361.4c5.1-0.6,10.5-0.6,15.6,0c5.1,0.6,10.2,2.7,14.7,4.8
		c4.5,2.4,7.5,5.1,10.2,8.4c2.7,3.9,4.5,7.8,5.7,12c0.6,2.4,1.2,5.1,1.2,7.8l0.6,47.6h-18.9v-40.1c-0.6-3.9-1.5-7.8-2.1-11.7
		c-0.3-2.4-1.2-5.1-3.6-6.9c-2.1-1.5-4.8-3-7.2-3.6c-3.6-0.9-7.5-1.5-11.1-1.5c-4.2,0-8.1,0.3-12,1.2c-3.3,0.6-6.6,1.5-9.3,3
		l-6.9,4.2l-3,1.8V442H60.2v-79.6h18.6v6.9c2.7-1.5,5.1-3.3,8.1-4.2C92.2,363.5,98.5,362,104.8,361.4L104.8,361.4z"/>
	<path fill="#C03724" d="M505.7,395.3h61.7c-0.6-1.5-0.9-3-1.8-4.5c-1.5-2.1-3.6-3.9-5.7-5.7c-2.4-1.8-5.1-3.6-8.1-4.5
		c-3.3-1.2-6.6-2.1-10.2-2.4c-3.9-0.3-7.5-0.3-11.4,0c-3.3,0.3-6.6,0.9-9.6,2.1c-2.7,1.2-5.7,2.4-8.1,4.5c-2.1,1.8-4.2,3.6-5.4,6
		L505.7,395.3L505.7,395.3z M452.4,362.6l-58.7,105.7h-21l15.3-26.9l-42.2-78.4h21.9l32,59.6l32-59.6L452.4,362.6L452.4,362.6z
		 M457.8,339h19.5v103.6h-19.5V339L457.8,339z M515.9,365c6.6-1.5,13.5-2.7,20.4-2.7c6.9,0,13.5,1.5,20.1,3
		c6.3,1.5,11.1,4.8,15.3,8.4c4.8,4.2,8.4,9.3,10.8,15c3,6.9,5.4,13.5,6.6,21.3h-83.5c1.2,3,2.7,5.7,4.5,7.8c2.1,2.4,4.5,4.2,7.2,6
		s6,2.7,9,3c3.3,0.6,6.9,1.2,10.2,1.2c5.4,0,10.5-0.6,15.6-1.2c3.6-0.6,6.9-1.2,10.5-2.4c2.7-0.9,5.4-2.1,7.8-3.6l5.7-3l9.6,12.9
		c-3,1.8-6.3,3.9-9.3,5.7c-3.6,2.1-6.9,3.6-10.8,4.5c-4.2,1.2-8.4,2.1-12.9,2.7c-5.4,0.6-11.1,0.3-16.5,0.6
		c-7.8,0-14.4-1.5-21.6-3.6c-6-1.8-11.1-4.2-15.6-8.4c-3.9-3.6-7.2-7.8-9.3-12.6c-2.1-5.1-3-10.8-3-15.9c0.3-6,1.5-11.7,3.9-17.1
		c2.4-5.4,5.7-9.6,9.6-13.2C504.8,369.5,510.2,366.5,515.9,365L515.9,365z M167.1,368.3c0.6,5.1,2.1,9.6,5.7,13.5
		c3.9,4.5,8.4,7.2,13.2,9c6,2.4,12,4.2,18.3,4.8c5.4,0.6,10.8,0.9,16.2,1.2c6,0.3,11.7,0.3,17.7,1.2c4.5,0.6,8.7,1.8,13.2,3
		c3.6,0.9,6,3.6,8.1,6.6c1.2,1.8,1.5,4.2,0.6,6.9c-0.9,3-2.4,5.4-4.5,6.9c-2.7,2.1-5.4,3.9-9.3,4.8c-4.2,0.9-8.4,1.8-12.6,1.8
		c-6,0.3-12,0-18.3-0.6c-6.3-0.6-12.6-1.8-18.9-3c-4.8-1.2-9.9-1.8-14.4-4.5l-11.1-6.6l-9.6,15.6c4.8,2.4,9.3,4.8,14.1,6.9
		c4.8,2.1,9.9,4.2,15,5.4c5.4,1.2,11.4,1.8,17.1,2.4c6.3,0.6,12.9,0.9,19.5,0.6c7.5-0.3,14.7-1.2,21.9-2.7
		c6.3-1.2,11.4-3.9,16.8-6.9c4.5-2.4,7.5-6.6,10.5-10.8c2.7-4.2,3.6-8.4,3-13.2c-0.3-6-2.7-11.1-6.9-15.6c-3.6-4.2-7.8-8.1-13.8-9.9
		c-6.3-2.1-12.9-3.6-19.5-4.5c-6.3-0.9-12.6-0.9-18.9-1.5c-3-0.3-6-0.6-9-0.9c-3.9-0.6-7.8-0.6-11.7-1.5c-3.6-0.6-6.6-2.1-9.3-4.2
		c-2.1-1.8-5.7-3-5.7-5.7c-0.3-2.4,3-4.2,4.8-5.7c2.4-2.1,4.8-3.6,7.8-4.8c3.6-1.5,7.8-2.1,11.7-2.7s7.5-0.9,11.4-0.9
		c5.4,0,10.5,0.3,15.6,0.9c4.5,0.6,8.7,1.8,12.9,3c3.9,1.2,7.8,2.4,11.4,4.5l9,4.8l9.6-13.5c-3.6-1.8-7.2-4.2-10.8-5.7
		c-4.2-1.8-8.4-3.6-12.6-4.8c-5.1-1.5-10.5-2.4-15.6-3c-6.3-0.9-12.9-1.5-19.5-1.2c-7.2,0.3-14.1,1.2-21.3,2.4
		c-6,0.9-12.3,2.7-17.4,5.7c-4.5,2.7-8.7,6-11.4,10.2C167.7,359.9,166.8,363.8,167.1,368.3L167.1,368.3z M281.4,362.6h13.2V342h19.5
		v20.7h25.2v15.6h-25.2c0,15.3-2.1,30.8,0,45.8c0.3,2.4,3.6,2.4,5.7,3c2.4,0.6,4.8,1.2,7.2,1.2c1.8,0,3.6-0.3,5.7-0.6
		c1.5-0.3,2.7-0.6,4.2-0.9l1.5-0.3l0.9-0.9h0.6l4.2,16.2l-2.4,0.6c-1.8,0.3-3.9,0.9-5.7,1.2c-2.4,0.3-4.8,0.9-7.2,1.2
		c-2.7,0.3-5.4,0.9-8.1,0.6c-3.6-0.3-7.2-1.2-10.8-1.8c-3-0.6-5.7-2.1-7.8-4.5c-1.8-2.1-4.5-4.5-4.8-7.2l-1.5-11.1l-0.9-41.9h-13.2
		v-16.2L281.4,362.6L281.4,362.6z"/>
</g>
</svg>
