<?xml version="1.0" encoding="utf-8"?>
<!-- Generator: Adobe Illustrator 18.0.0, SVG Export Plug-In . SVG Version: 6.00 Build 0)  -->
<!DOCTYPE svg PUBLIC "-//W3C//DTD SVG 1.1//EN" "http://www.w3.org/Graphics/SVG/1.1/DTD/svg11.dtd">
<svg version="1.1" id="Layer_1" xmlns="http://www.w3.org/2000/svg" xmlns:xlink="http://www.w3.org/1999/xlink" x="0px" y="0px"
	 viewBox="0 0 136.7 28.9" enable-background="new 0 0 136.7 28.9" xml:space="preserve">
<g>
	<path fill="#E0E1E0" d="M54.4,27l1.6-0.2c1-0.1,1.4-0.4,1.4-3.3v-17c0-2.1,0-2.6-2.7-3.2v-1C56.8,1.6,58.4,1,60.5,0v23.5
		c0,2.9,0.5,3.2,1.4,3.3l1.5,0.2v1.2c-1,0-2.9-0.1-4.5-0.1c-1.6,0-3.5,0.1-4.5,0.1 M104.2,28.2c1,0,2.6-0.1,4.3-0.1
		c1.6,0,3.3,0.1,4.3,0.1V27l-1.4-0.2c-0.9-0.2-1.4-0.4-1.4-3.3v-12c1.1-0.7,2.8-1.5,4.7-1.5c3.5,0,4.2,1.7,4.2,4.9v8.7
		c0,2.9-0.4,3.2-1.4,3.3l-1.4,0.2v1.2c1,0,2.6-0.1,4.3-0.1c1.6,0,3.3,0.1,4.3,0.1V27l-1.4-0.2c-0.9-0.2-1.4-0.4-1.4-3.3v-9.1
		c0-1-0.1-2-0.3-2.9c1.1-0.7,3.1-1.7,5-1.7c3.5,0,4.2,1.8,4.2,5v8.7c0,2.9-0.4,3.2-1.4,3.3l-1.4,0.2v1.2c1,0,2.6-0.1,4.3-0.1
		c1.6,0,3.3,0.1,4.3,0.1V27l-1.4-0.2c-0.9-0.2-1.4-0.4-1.4-3.3v-9.1c0-4.2-1.2-7-6.1-7c-2.2,0-4.9,1.5-6.5,3.1
		c-0.8-1.9-2.5-3.1-5.5-3.1c-2.2,0-4.5,1.4-5.8,2.7V7.1c-2.1,0.9-3.6,1.4-5.8,2v1c2.7,0.5,2.7,1,2.7,3.2v10.2c0,2.9-0.4,3.2-1.4,3.3
		l-1.4,0.2 M0,28.5c1,0,2.5-0.2,4.1-0.2c1.5,0,3.7,0.1,4.7,0.2v-1.1L7,27.1c-0.9-0.1-1.3-0.4-1.3-3.2V12.5c1.3-1,2.9-1.5,4.3-1.5
		c0.7,0,1.7,0.1,2.2,0.4l0.3-2.8c-0.5-0.1-1-0.2-1.7-0.2c-1.7,0-4.1,1.4-5.1,2.8v-3C3.6,9,2.1,9.5,0,10.1v1c2.6,0.5,2.6,1,2.6,3.1
		v9.8c0,2.8-0.4,3.1-1.3,3.2L0,27.3 M16.9,15.8c0.3-2.7,2-5.7,5.4-5.7c2.8,0,4.2,2.5,4.2,4.8c0,0.6-0.2,0.9-0.9,0.9 M13.5,19
		c0,6.1,3.2,10,9.1,10c2.9,0,5.4-1.2,6.2-2.5l-0.1-1c-1.3,0.6-3,1.1-5.3,1.1c-4.5,0-6.7-3.6-6.7-8c0-0.4,0-0.8,0-1.2h13
		c0.1-0.5,0.1-0.9,0.1-1.5c0-3.9-2.4-7.6-7.4-7.6C17.2,8.4,13.5,12.9,13.5,19 M48,21.2c0,3.4-2,5.4-6,5.4c-2.9,0-3.3-0.8-3.3-2.3V16
		c0.8-0.1,2.4-0.1,3.5-0.1C46,15.9,48,18,48,21.2 M46.9,9.2c0,2.5-1.8,4.9-5.2,4.9c-1.5,0-2,0-3-0.1V4.6c0.8-0.1,2.3-0.1,2.8-0.1
		C45,4.5,46.9,6.1,46.9,9.2 M36.7,28.2c1.1,0,3.3,0.2,4.9,0.2c5.8,0,9.8-2.9,9.8-7.5c0-3.7-3.2-6-6.1-6.2v0c2.3-0.5,5-2.8,5-5.7
		c0-3.9-2.7-6.2-7.8-6.2c-1.6,0-3.5,0.1-5.9,0.1c-1.6,0-3.3,0-4.3,0V4l1.6,0.3c1.1,0.2,1.7,0.7,1.7,3.2v16.1c0,2.5-0.6,3-1.7,3.2
		l-1.6,0.3v1.2C33.4,28.2,35.2,28.2,36.7,28.2 M84.6,18.1c0,5.3-3.9,8.7-7.8,8.7c-3.8,0-7.9-3.5-7.9-9.2c0-5.3,4-8.8,7.8-8.8
		C80.7,8.8,84.6,12.5,84.6,18.1 M65.5,18c0,6.2,5,10.5,11.1,10.5c5.9,0,11.5-4.9,11.5-10.8c0-6.1-5.2-10.5-11.2-10.5
		C71,7.1,65.5,12.1,65.5,18 M95.4,11.3c3.3,4.4,2.8,9.9-1.2,13.9c-1.8,1.7-4.1,2.6-6.4,2.9c3,0.2,6.2,0.7,9.7-2.3
		c4.9-4.2,4.7-11.3,0.9-15.4c-2.3-2.5-5.8-3.5-9.2-3C91.1,8.2,93.8,9.1,95.4,11.3"/>
</g>
</svg>
