<?xml version="1.0" encoding="utf-8"?>
<!-- Generator: Adobe Illustrator 18.0.0, SVG Export Plug-In . SVG Version: 6.00 Build 0)  -->
<!DOCTYPE svg PUBLIC "-//W3C//DTD SVG 1.1//EN" "http://www.w3.org/Graphics/SVG/1.1/DTD/svg11.dtd">
<svg version="1.1" id="Layer_1" xmlns="http://www.w3.org/2000/svg" xmlns:xlink="http://www.w3.org/1999/xlink" x="0px" y="0px"
	 viewBox="22.2 352.7 571.9 81.7" enable-background="new 22.2 352.7 571.9 81.7" xml:space="preserve">
<g>
	<path fill="#928785" d="M22.5,433.3c0,0,0.3-0.9,0.3-1.5s0.3-1.8,0.3-1.8l0,0l0.3-37.7l0,0c0,0-0.3-3-0.3-4.8
		c0-2.4-0.9-4.2-0.9-4.2l0,0l22.5-10.2v10.2l0,0c0.3-0.3,8.1-10.2,20.7-9c12.3,1.2,12.6,9,12.9,9c0.6,0,8.1-10.2,20.1-9
		c10.8,1.2,12.6,8.1,12.6,10.5c0,1.2,0,46.1,0,46.1l0.3,1.2c0.3,1.2,0.3,1.2,0.3,1.2H88.6c0,0,0.3-0.6,0.6-0.9
		c0-0.6,0.3-1.8,0.3-1.8s0-35.9-0.3-37.1c-0.3-1.2-0.9-3.9-4.5-4.5c-5.1-0.9-6.9,5.1-6.9,5.1c0,3-0.3,36.8-0.3,36.8s0,0.9,0.3,1.5
		c0.3,0.9,0.3,0.9,0.3,0.9l0,0H55.1l0,0c0,0,0.3-0.6,0.3-1.2c0-0.6,0-1.2,0-1.2s0.3-36.2,0-37.1c-0.3-0.9-0.9-4.5-4.8-4.5
		c-3.6,0-6,4.2-6.3,6.3c-0.3,1.2-0.3,35-0.3,35l0,0l0.3,1.5l0.6,1.2l0,0C44.6,433.3,22.5,433.3,22.5,433.3L22.5,433.3L22.5,433.3
		L22.5,433.3z"/>
	<path fill="#928785" d="M162,433c-2.4-0.6-4.2-1.2-5.1-1.8c-1.5-0.9-4.5-3.6-4.5-3.6s-0.3,0-1.2,0.6c-0.9,0.6-6.6,3.6-9,4.5
		c-5.1,1.5-10.8,1.5-14.4,0c-11.1-4.2-11.4-13.8-11.4-16.2c0-2.4-0.6-12.3,9-17.7c7.2-3.9,16.5-4.5,16.5-4.5s-1.5-8.1-7.2-10.5
		c-6.3-2.7-12,0.6-12,0.6s0-8.7,0-9.3c0,0,7.8-2.7,14.7-2.7s11.1,1.2,13.5,2.1c2.7,0.9,9.6,4.8,12,15.6c2.4,10.8,3.3,17.7,3.9,21.3
		c0.6,3.3,0.9,7.8,3,10.2c2.1,2.7,4.2,1.8,4.5,2.1c0,0,0,9,0,9.3S164.4,433.6,162,433L162,433L162,433L162,433z M137.1,420.7
		c4.5,5.7,10.8,1.2,11.4,0.3c0,0-3.9-16.8-4.5-17.1C144,403.6,131.4,408.7,137.1,420.7L137.1,420.7L137.1,420.7L137.1,420.7z"/>
	<path fill="#928785" d="M177.9,433.3h24l0,0c0,0-0.3-0.3-0.6-0.6s-0.3-1.5-0.3-1.5s0-29.9,0-30.8c0-1.2,0.6-6.6,1.8-8.1
		c1.2-1.8,2.7-3,6-3.6c3.3-0.6,8.1,0.6,8.1,0.6s4.5-14.4,4.5-15c0,0-1.5-1.8-6-2.1s-7.8,2.4-9.6,4.2c-2.1,1.8-3.6,3.9-4.8,4.8l0,0
		v-8.7l-23.7,10.2l0,0c0,0,0.3,0.9,0.9,1.8c0.3,0.9,0.6,4.2,0.6,4.2l0,0v42.5l-0.3,1.2L177.9,433.3L177.9,433.3L177.9,433.3z"/>
	<path fill="#928785" d="M221.9,433.3c0.3,0,24,0,24,0s-0.3-0.6-0.6-1.2c0-0.3-0.3-0.9-0.3-1.8c0-0.9,0-57.5,0-58.4l0,0l-22.8,9.9
		v48.5l0,0c0,0,0,0.6,0,1.5C222.2,433,221.9,433.3,221.9,433.3L221.9,433.3L221.9,433.3L221.9,433.3z"/>
	<path fill="#928785" d="M233.8,371.3c7.2,0,12.6-4.5,12.6-9.6s-5.4-9-12.6-9c-7.2,0-12.3,4.2-12.3,9.3
		C221.6,366.8,226.7,371.3,233.8,371.3L233.8,371.3L233.8,371.3L233.8,371.3z"/>
	<path fill="#928785" d="M285.9,423.1c10.2,0.9,14.4-3,14.4-3c0,0.9,0,9.3,0,9.9c-0.6,0.6-6.3,3-17.7,3.3c-11.4,0.3-16.2-3-17.7-3.3
		c-1.2-0.6-12.6-7.5-14.7-21c-2.1-13.5,3.9-23.4,3.9-23.4s6-11.1,21.3-13.5c15-2.4,23.4,5.1,26.3,9.9c4.8,7.5,6.6,18.9,6.6,18.9
		s-35,9.6-35.3,9.9C273.7,411.1,275.8,422.2,285.9,423.1L285.9,423.1L285.9,423.1L285.9,423.1z M271.6,401.8l15-4.2l0,0
		c0,0,0.9-15.3-7.8-14.7S271.3,401.8,271.6,401.8L271.6,401.8L271.6,401.8L271.6,401.8z"/>
	<path fill="#928785" d="M371.9,430.9v-10.2l0,0c-0.3,0-3.9,2.4-8.7,2.1c-6.6-0.3-10.8-5.7-11.7-6.9s-3.9-7.2-3.9-13.8
		c-0.3-6.9,2.1-13.2,4.2-15.3c2.1-2.1,5.1-3.9,8.7-3.9s9,2.1,9.3,2.1l0,0v-9.9l0,0c0,0-9-2.4-14.1-2.7c-12.6-0.6-20.7,6.9-22.2,8.7
		c-1.5,1.8-8.1,8.1-7.8,24.9c1.2,17.1,11.4,23.7,11.4,23.7s5.7,4.8,18.9,4.8C367.4,433.6,371.9,430.9,371.9,430.9L371.9,430.9
		L371.9,430.9L371.9,430.9z"/>
	<path fill="#928785" d="M376.7,433.3h23.7l0,0c0,0-0.3-0.6-0.3-0.9c0,0-0.3-0.9-0.3-1.8c0-0.6,0-76.6,0-76.6
		c0-0.3-24.3,10.8-24.3,10.8c0.9,0.9,1.5,2.1,1.8,3.9l0,0v62.3l0,0c0,0,0,0.6-0.3,1.5C377,432.7,376.7,433.3,376.7,433.3
		L376.7,433.3L376.7,433.3L376.7,433.3z"/>
	<path fill="#928785" d="M467.4,433.3h24.3l0,0c0,0-0.3-0.6-0.6-0.9c0,0-0.3-1.2-0.3-1.5c0-0.6,0-57.8,0-58.4l0,0L468,382.7l0,0
		c0,0.3,0,47.9,0,47.9l0,0v1.2l0,0C468,432.4,467.4,433.3,467.4,433.3L467.4,433.3L467.4,433.3L467.4,433.3z"/>
	<path fill="#928785" d="M497.9,433.3h24l0,0c0,0-0.3-0.3-0.6-1.2c0-0.3-0.3-1.5-0.3-1.5s0-29.3,0-30.5s0.3-6.6,1.5-8.1
		c1.2-1.8,2.7-3,6-3.6c3.3-0.6,8.1,0.3,8.1,0.3l0,0L541,374l0,0c0,0-0.9-2.1-5.7-2.1c-4.5,0-7.8,2.4-9.9,4.2s-4.5,4.8-4.5,4.8
		s0-8.7,0-9l0,0l-24,10.5l0,0c0,0,0.3,0.9,0.9,2.1c0.3,1.5,0.3,3.9,0.3,3.9l0,0v40.4l0,0c0,0,0,1.8-0.3,3
		C498.2,432.7,497.9,433.3,497.9,433.3L497.9,433.3L497.9,433.3L497.9,433.3z"/>
	<path fill="#928785" d="M571.9,422.8c10.2,0.9,14.4-3.3,14.4-3.3s0,9.3,0,10.2c-0.6,0.6-6.3,3-17.7,3.3s-16.2-3-17.7-3.3
		c-1.2-0.6-12.6-7.5-14.7-21c-2.1-13.5,3.9-23.4,3.9-23.4s6-11.1,21.3-13.5c14.7-2.1,22.8,5.4,26.3,9.9c3.6,4.5,6.6,18.6,6.3,18.9
		s-34.4,9.6-34.7,9.9C559.3,411.1,561.4,422.2,571.9,422.8L571.9,422.8L571.9,422.8L571.9,422.8z M557.5,401.8
		c0.9,0,14.4-3.9,15-4.2c0.6-0.6,0.9-15.3-7.8-14.7C556.3,383.3,556.9,401.8,557.5,401.8L557.5,401.8L557.5,401.8L557.5,401.8z"/>
	<path fill="#928785" d="M478.2,371.9c7.2,0,12.6-4.5,12.6-9.6s-5.4-9-12.6-9c-7.2,0-12.3,4.2-12.3,9.3
		C465.9,367.7,471,371.9,478.2,371.9L478.2,371.9L478.2,371.9L478.2,371.9z"/>
	<path fill="#928785" d="M450.3,433c-2.4-0.6-4.5-1.2-5.1-1.8c-1.5-0.9-4.5-3.6-4.5-3.6s-0.3,0-1.2,0.6c-0.9,0.6-6.6,3.6-9,4.5
		c-5.1,1.5-10.8,1.5-14.4,0c-11.1-4.5-11.4-13.8-11.4-16.2c0-2.4-0.6-12.3,9-17.7c7.2-3.9,16.5-4.5,16.5-4.5s-1.5-8.1-7.2-10.5
		c-6.3-2.7-12,0.6-12,0.6s0-8.7,0-9.3c0,0,7.8-2.7,14.7-2.7c6.9,0,11.1,1.2,13.5,2.1c2.4,0.9,9.6,4.8,12,15.6
		c2.4,10.8,3.3,17.7,3.9,21.3c0.6,3.3,0.9,7.8,3,10.2c2.1,2.7,4.2,1.8,4.5,2.1c0,0,0,9,0,9.3C463.2,433.3,453,433.6,450.3,433
		L450.3,433L450.3,433L450.3,433z M425.5,420.4c4.5,5.7,10.8,1.2,11.4,0.3c0,0-3.9-16.8-4.5-17.1
		C432.7,403.3,419.8,408.7,425.5,420.4L425.5,420.4L425.5,420.4L425.5,420.4z"/>
</g>
</svg>
