<?xml version="1.0" encoding="utf-8"?>
<!-- Generator: Adobe Illustrator 18.0.0, SVG Export Plug-In . SVG Version: 6.00 Build 0)  -->
<!DOCTYPE svg PUBLIC "-//W3C//DTD SVG 1.1//EN" "http://www.w3.org/Graphics/SVG/1.1/DTD/svg11.dtd">
<svg version="1.1" id="Layer_1" xmlns="http://www.w3.org/2000/svg" xmlns:xlink="http://www.w3.org/1999/xlink" x="0px" y="0px"
	 viewBox="0 0 102 67.7" enable-background="new 0 0 102 67.7" xml:space="preserve">
<path fill="#FFFFFF" d="M0,42.3C0,22.6,19,6.6,46,0c3.4,1.2,4.4,5.4,2.4,8.3c-12.9,3.6-24.3,13.6-24.3,23.4c0,5.4,2.9,8.8,7.8,11.4
	c2.9,1.5,4.6,4.9,4.6,9c0,8-6.8,15.6-15.8,15.6C11.7,67.7,0,59.9,0,42.3z M52.6,42.3c0-19.7,19-35.8,46-42.3
	c3.4,1.2,4.4,5.4,2.4,8.3c-12.9,3.6-24.3,13.6-24.3,23.4c0,5.4,2.9,8.8,7.8,11.4c2.9,1.5,4.6,4.9,4.6,9c0,8-6.8,15.6-15.8,15.6
	S52.6,59.9,52.6,42.3z"/>
</svg>
