<?xml version="1.0" encoding="utf-8"?>
<!-- Generator: Adobe Illustrator 18.0.0, SVG Export Plug-In . SVG Version: 6.00 Build 0)  -->
<!DOCTYPE svg PUBLIC "-//W3C//DTD SVG 1.1//EN" "http://www.w3.org/Graphics/SVG/1.1/DTD/svg11.dtd">
<svg version="1.1" id="Layer_1" xmlns="http://www.w3.org/2000/svg" xmlns:xlink="http://www.w3.org/1999/xlink" x="0px" y="0px"
	 viewBox="25.1 313 568.2 156.6" enable-background="new 25.1 313 568.2 156.6" xml:space="preserve">
<g>
	<g>
		<g>
			<path fill="#928785" d="M297.2,338.7c0,12.2-9.6,19.4-18.6,19.4s-18.6-7-18.6-19.4c0-12.4,9.6-19.4,18.6-19.4
				C287.6,319.5,297.2,326.5,297.2,338.7z M305,338.7c0-16.1-12.9-25.6-26.1-25.6c-13.2,0-26.1,9.8-26.1,25.6
				c0,15.8,12.9,25.6,26.1,25.6C291.8,364.5,305,354.7,305,338.7z"/>
			<path fill="#928785" d="M363.2,327.8c0,5.2-4.4,7.5-8.8,7.5h-6.2v-15h6.2C358.8,320.5,363.2,322.9,363.2,327.8z M370.7,327.8
				c0-9.6-7.8-14-15-14h-15v49.4h7.5v-21.7h7.5C363,341.8,370.7,337.4,370.7,327.8z"/>
			<path fill="#928785" d="M428.2,327.8c0,5.2-4.4,7.5-8.8,7.5h-6.7v-15h6.7C423.8,320.5,428.2,322.9,428.2,327.8z M443.7,363.5
				l-16.8-23c4.7-2.1,8.8-6.2,8.8-12.9c0-9.6-7.8-14-15-14h-15.5V363h7.5v-21.2h7l15.5,21.7H443.7z"/>
		</g>
		<path fill="#928785" d="M502.2,344.9H488l3.6-9.6c1-2.6,2.1-4.7,3.1-8.8l0,0c1.3,3.6,2.1,6.2,3.4,8.8L502.2,344.9z M517.2,363.5
			l-21-50.2h-2.6l-21,50.2h7.5l5.4-12.9h19.4l5.4,12.9H517.2z"/>
		<polygon fill="#928785" points="584.8,363.5 584.8,341.8 559.4,341.8 559.4,363.5 551.9,363.5 551.9,314.1 559.4,314.1
			559.4,335.3 584.8,335.3 584.8,314.1 592.6,314.1 592.6,363.5 		"/>
	</g>
	<polygon fill="#746A6D" points="49.2,320.5 49.2,363.8 41.7,363.8 41.7,320.5 25.6,320.5 25.6,314.1 65,314.1 65,320.5 	"/>
	<polygon fill="#746A6D" points="131.5,363.8 131.5,342 105.9,342 105.9,363.8 98.6,363.8 98.6,314.1 105.9,314.1 105.9,335.6
		131.5,335.6 131.5,314.1 139.3,314.1 139.3,363.8 	"/>
	<polygon fill="#746A6D" points="177.1,363.8 177.1,314.1 203.5,314.1 203.5,320.5 184.6,320.5 184.6,335.6 200.6,335.6 200.6,342
		184.6,342 184.6,357.3 206.3,357.3 206.3,363.8 	"/>
	<path fill="#746A6D" d="M74.6,468.4l-1.3-16.6c-0.8-6.2-1-11.6-1.3-17.3l0,0c-2.3,5.2-4.7,10.1-7.5,15.5l-9.8,18.6H52L42.5,450
		c-3.1-5.7-5.7-11.1-7.5-15.5l0,0c-0.3,6.2-1,11.9-1.3,17.3l-1.8,16.6h-6.7l4.4-49.7h4.7l11.9,23c2.6,5.7,5.4,10.9,7.5,15.5l0,0
		c2.1-4.7,4.4-9.8,7.5-15.5l11.6-22.8h4.7l4.4,49.7h-7v-0.3H74.6z"/>
	<path fill="#746A6D" d="M146.8,449.5h-14.2l3.6-9.6c1-2.6,2.1-4.7,3.1-8.8l0,0c1.3,4.1,2.1,6.2,3.4,8.8L146.8,449.5z M162.3,468.4
		l-21.2-50.5h-2.6l-21,50.5h7.5l5.4-12.9h19.4l5.4,12.9H162.3z"/>
	<path fill="#746A6D" d="M221.9,469.4c-13.2,0-27.2-9.1-27.2-25.6c0-17.3,14.2-26.1,26.7-26.1c6.7,0,12.2,1.8,16.1,4.1l-1.3,6.5
		c-3.6-2.3-8.5-4.1-13.5-4.1c-9.8,0-19.9,6.5-19.9,19.4c0,12.9,9.8,19.4,19.9,19.4c4.4,0,8-1,10.6-2.6v-10.6h-11.6v-6.2h18.6V464
		C235.3,467.8,229.4,469.4,221.9,469.4z"/>
	<path fill="#746A6D" d="M306,449.5h-14.2l3.6-9.6c1-2.6,2.1-4.7,3.1-8.8l0,0c1.3,4.1,2.1,6.2,3.4,8.8L306,449.5z M321.5,468.4
		l-21-50.5H298l-21,50.5h7.5l5.4-12.9h19.4l5.4,12.9H321.5z"/>
	<path fill="#746A6D" d="M355.7,468.4v-1.6l16.3-28.7c2.6-4.4,5.2-9.1,7.5-12.9l0,0h-22.3v-6.5h32.6v1.8l-16.3,28.7
		c-2.3,4.1-5.2,8.8-7.5,12.9l0,0h25.1v6.5L355.7,468.4L355.7,468.4z"/>
	<rect x="429.5" y="418.7" fill="#746A6D" width="7.5" height="49.7"/>
	<path fill="#746A6D" d="M521.1,469.4l-21.7-23.3c-4.4-4.7-9.1-10.1-12.9-15l0,0c0,4.4,0,8,0,11.9v25.4h-7.5v-49.7h5.2l18.9,21
		c4.4,4.7,9.1,9.8,12.9,15l0,0c0-3.6,0-8,0-11.6v-24.1h7.5v50.7h-2.3L521.1,469.4L521.1,469.4z"/>
	<polygon fill="#746A6D" points="563.8,468.4 563.8,418.7 590.5,418.7 590.5,425.1 571.4,425.1 571.4,440.1 587.4,440.1
		587.4,446.4 571.4,446.4 571.4,462.1 593.4,462.1 593.4,468.4 	"/>
</g>
</svg>
