<?xml version="1.0" encoding="utf-8"?>
<!-- Generator: Adobe Illustrator 18.0.0, SVG Export Plug-In . SVG Version: 6.00 Build 0)  -->
<!DOCTYPE svg PUBLIC "-//W3C//DTD SVG 1.1//EN" "http://www.w3.org/Graphics/SVG/1.1/DTD/svg11.dtd">
<svg version="1.1" id="Layer_1" xmlns="http://www.w3.org/2000/svg" xmlns:xlink="http://www.w3.org/1999/xlink" x="0px" y="0px"
	 viewBox="0 0 93.2 19.7" enable-background="new 0 0 93.2 19.7" xml:space="preserve">
<path fill="#2F1A45" d="M37.1,18.4l1.1-0.1c0.7-0.1,0.9-0.3,0.9-2.3V4.4c0-1.4,0-1.8-1.8-2.2V1.5c1.5-0.4,2.5-0.8,3.9-1.5v16
	c0,2,0.3,2.2,0.9,2.3l1,0.1v0.8c-0.7,0-2-0.1-3-0.1c-1.1,0-2.4,0.1-3.1,0.1 M71,19.2c0.7,0,1.8-0.1,2.9-0.1c1.1,0,2.2,0.1,3,0.1
	v-0.8L76,18.3C75.3,18.2,75,18,75,16V7.8c0.7-0.5,1.9-1,3.2-1c2.4,0,2.8,1.2,2.8,3.3V16c0,2-0.3,2.2-0.9,2.3l-0.9,0.1v0.8
	c0.7,0,1.8-0.1,2.9-0.1c1.1,0,2.2,0.1,3,0.1v-0.8l-0.9-0.1c-0.6-0.1-0.9-0.3-0.9-2.3V9.8c0-0.7-0.1-1.4-0.2-2
	c0.7-0.5,2.1-1.1,3.4-1.1c2.4,0,2.8,1.3,2.8,3.4V16c0,2-0.3,2.2-0.9,2.3l-0.9,0.1v0.8c0.7,0,1.8-0.1,2.9-0.1c1.1,0,2.2,0.1,3,0.1
	v-0.8l-0.9-0.1c-0.6-0.1-0.9-0.3-0.9-2.3V9.8c0-2.9-0.8-4.8-4.2-4.8c-1.5,0-3.4,1-4.4,2.1C82.2,5.8,81.1,5,79,5
	c-1.5,0-3.1,0.9-4,1.8v-2c-1.4,0.6-2.5,0.9-3.9,1.4v0.7c1.8,0.4,1.8,0.7,1.8,2.2V16c0,2-0.3,2.2-0.9,2.3L71,18.4 M0,19.4
	c0.7,0,1.7-0.1,2.8-0.1c1,0,2.5,0.1,3.2,0.1v-0.8l-1.3-0.1c-0.6-0.1-0.9-0.3-0.9-2.2V8.5c0.9-0.7,1.9-1,2.9-1c0.5,0,1.2,0.1,1.5,0.2
	l0.2-1.9C8.1,5.8,7.8,5.7,7.3,5.7c-1.1,0-2.8,1-3.5,1.9V5.6C2.5,6.2,1.5,6.5,0,6.9v0.7c1.8,0.4,1.8,0.7,1.8,2.1v6.7
	c0,1.9-0.3,2.1-0.9,2.2L0,18.6 M11.5,10.8c0.2-1.9,1.4-3.9,3.7-3.9c1.9,0,2.9,1.7,2.9,3.3c0,0.4-0.2,0.6-0.6,0.6 M9.2,12.9
	c0,4.2,2.2,6.8,6.2,6.8c2,0,3.7-0.8,4.2-1.7l-0.1-0.7c-0.9,0.4-2.1,0.8-3.6,0.8c-3.1,0-4.6-2.5-4.6-5.4c0-0.2,0-0.5,0-0.8h8.9
	c0.1-0.4,0.1-0.6,0.1-1c0-2.7-1.6-5.2-5-5.2C11.7,5.7,9.2,8.8,9.2,12.9 M32.7,14.4c0,2.3-1.3,3.7-4.1,3.7c-2,0-2.2-0.5-2.2-1.6v-5.6
	c0.6-0.1,1.6-0.1,2.4-0.1C31.4,10.8,32.7,12.3,32.7,14.4 M32,6.3c0,1.7-1.3,3.3-3.5,3.3c-1,0-1.4,0-2-0.1V3.1
	C27,3.1,28,3.1,28.3,3.1C30.7,3.1,32,4.1,32,6.3 M25,19.2c0.8,0,2.2,0.1,3.4,0.1c4,0,6.7-2,6.7-5.1c0-2.5-2.2-4.1-4.2-4.2v0
	c1.6-0.4,3.4-1.9,3.4-3.9c0-2.7-1.8-4.2-5.3-4.2c-1.1,0-2.4,0.1-4,0.1c-1.1,0-2.2,0-2.9,0v0.8l1.1,0.2c0.7,0.1,1.1,0.5,1.1,2.2v11
	c0,1.7-0.4,2.1-1.1,2.2L22,18.5v0.8C22.7,19.2,24,19.2,25,19.2 M57.7,12.3c0,3.6-2.6,5.9-5.3,5.9c-2.6,0-5.4-2.4-5.4-6.3
	c0-3.6,2.8-6,5.3-6C55,6,57.7,8.6,57.7,12.3 M44.6,12.3c0,4.3,3.4,7.2,7.6,7.2c4,0,7.8-3.3,7.8-7.4c0-4.2-3.5-7.2-7.6-7.2
	C48.4,4.9,44.6,8.2,44.6,12.3 M65.1,7.7c2.2,3,1.9,6.8-0.8,9.5c-1.2,1.2-2.8,1.8-4.3,2c2.1,0.2,4.2,0.5,6.6-1.6
	c3.3-2.9,3.2-7.7,0.6-10.5c-1.6-1.7-3.9-2.4-6.3-2C62.1,5.6,63.9,6.2,65.1,7.7"/>
</svg>
