<?xml version="1.0" encoding="utf-8"?>
<!-- Generator: Adobe Illustrator 18.0.0, SVG Export Plug-In . SVG Version: 6.00 Build 0)  -->
<!DOCTYPE svg PUBLIC "-//W3C//DTD SVG 1.1//EN" "http://www.w3.org/Graphics/SVG/1.1/DTD/svg11.dtd">
<svg version="1.1" id="Layer_1" xmlns="http://www.w3.org/2000/svg" xmlns:xlink="http://www.w3.org/1999/xlink" x="0px" y="0px"
	 viewBox="29.7 269.2 556.6 245.5" enable-background="new 29.7 269.2 556.6 245.5" xml:space="preserve">
<g>
	<g opacity="0.2">
		<path fill="#231A4E" d="M233.4,269.2c-67.5,0-131.5,56.6-131.5,124.5c0,71.8,58.2,121,128,121c67.9,0,132.3-56.2,132.3-124.9
			C362.2,319.9,302.9,269.2,233.4,269.2z M233,495.1c-43.3,0-90.6-39.8-90.6-105.4c0-61.3,46.4-100.7,89.4-100.7
			c46.1,0,90.9,42.5,90.9,106.2C322.8,455.7,277.9,495.1,233,495.1z"/>
		<path fill="#231A4E" d="M446.9,317.9c37.5,50.7,31.6,114.4-14.1,160c-20.3,19.9-47.2,29.7-73,33.2c35.1,2.7,71,8.2,111.6-26.5
			c56.6-48.4,54.3-130.4,10.5-177.6c-26.5-28.5-66-39.8-105.4-34.3C397.3,281.2,428.2,292.2,446.9,317.9"/>
	</g>
	<g>
		<path opacity="0.69" fill="#2F1A45" enable-background="new    " d="M251.4,406.5l6.6-0.8c3.9-0.4,5.5-1.6,5.5-13.7v-69.5
			c0-8.6,0-10.5-10.9-12.9v-3.9c9-2.3,15.2-5.1,23.4-9v95.2c0,11.7,2,12.9,5.5,13.7l6.2,0.8v4.7c-4.3,0-11.7-0.4-18.3-0.4
			s-14.1,0.4-18.3,0.4 M453.9,411.2c4.3,0,10.5-0.4,17.2-0.4c6.2,0,13.3,0.4,17.6,0.4v-4.7l-5.5-0.8c-3.9-0.8-5.5-1.6-5.5-13.7
			v-48.8c4.3-2.7,11.7-6.2,19.1-6.2c14.4,0,16.8,7,16.8,19.9v35.1c0,11.7-1.6,12.9-5.5,13.7l-5.5,0.8v4.7c4.3,0,10.5-0.4,17.2-0.4
			c6.2,0,13.3,0.4,17.6,0.4v-4.7l-5.5-0.8c-3.9-0.8-5.5-1.6-5.5-13.7V355c0-4.3-0.4-8.2-1.2-11.7c4.3-2.7,12.9-6.6,20.3-6.6
			c14.4,0,16.8,7.4,16.8,20.3v35.1c0,11.7-1.6,12.9-5.5,13.7l-5.5,0.8v4.7c4.3,0,10.5-0.4,17.2-0.4c6.6,0,13.3,0.4,17.6,0.4v-4.7
			l-5.5-0.8c-3.9-0.8-5.5-1.6-5.5-13.7V355c0-17.2-5.1-28.5-25-28.5c-9,0-19.9,6.2-26.2,12.5c-3.1-7.8-10.1-12.5-22.2-12.5
			c-9,0-18.3,5.5-23.8,10.9v-11.7c-8.6,3.5-14.8,5.5-23.4,8.2v3.9c10.9,2.3,10.9,4.3,10.9,12.9v41.4c0,11.7-1.6,12.9-5.5,13.7
			l-5.5,0.8 M30.1,412.4c3.9-0.4,10.1-0.8,16.8-0.8c6.2,0,15.2,0.4,19.1,0.8v-4.7l-7.4-0.8c-3.5-0.4-5.5-1.6-5.5-13.3v-46.1
			c5.1-3.9,11.7-6.2,17.2-6.2c3.1,0,7,0.4,9,1.6l1.2-11.3c-2-0.4-4.3-1.2-7-1.2c-6.6,0-16.4,5.9-20.7,11.3v-12.5
			c-8.2,3.5-14.1,5.5-22.6,7.8v3.9c10.5,2,10.5,4.3,10.5,12.5v39.8c0,11.3-1.6,12.5-5.5,13.3l-5.5,0.8 M98.7,361.3
			c1.2-11.3,8.2-23.4,21.9-23.4c11.3,0,17.2,10.1,17.2,19.5c0,2.3-1.2,3.5-3.9,3.5 M85.1,373.8c0,25,12.9,40.6,37.1,40.6
			c11.7,0,22.2-5.1,25.4-10.1l-0.4-3.9c-5.1,2.7-12.5,4.7-21.5,4.7c-18.3,0-27.3-14.8-27.3-32.4c0-1.6,0-3.1,0-4.7H151
			c0.4-2,0.4-3.9,0.4-5.9c0-16-9.8-31.2-30.1-31.2C99.9,330.8,85.1,349.2,85.1,373.8 M225.2,382.7c0,13.7-7.8,21.9-24.6,21.9
			c-12.1,0-13.3-3.1-13.3-9.4v-33.6c3.5-0.4,9.8-0.4,14.1-0.4C217.4,361.3,225.2,369.8,225.2,382.7 M220.5,333.9
			c0,10.1-7.4,19.9-21.1,19.9c-6.2,0-8.2,0-12.1-0.4v-37.9c3.5-0.4,9.4-0.4,11.3-0.4C213.1,315.2,220.5,321.5,220.5,333.9
			 M179.2,411.2c4.7,0,13.3,0.8,20.3,0.8c23.4,0,39.8-11.7,39.8-30.4c0-15.2-13.3-24.2-25-25.4l0,0c9.4-2.3,20.3-11.3,20.3-23
			c0-16-10.9-25.4-31.6-25.4c-6.6,0-14.4,0.4-23.8,0.4c-6.6,0-13.3,0-17.6,0v4.7l6.2,1.2c4.3,0.8,6.6,2.7,6.6,13.3v65.6
			c0,10.1-2.3,12.5-6.6,13.3l-6.2,1.2v4.3C165.9,411.6,173.3,411.2,179.2,411.2 M374.3,370.2c0,21.5-15.6,35.5-31.6,35.5
			c-15.2,0-32-14.1-32-37.5c0-21.9,16.4-35.5,31.6-35.5C358.3,332.8,374.3,347.6,374.3,370.2 M296.2,369.8
			c0,25.4,20.7,42.9,45.3,42.9c24.2,0,46.8-19.9,46.8-44.1c0-25-21.1-42.5-45.7-42.5C318.9,325.7,296.2,345.7,296.2,369.8
			 M418.4,342.9c13.3,18,11.3,40.6-5.1,56.6c-7,7-16.8,10.5-25.8,11.7c12.5,0.8,25,2.7,39.4-9.4c19.9-17.2,19.1-46.1,3.5-62.8
			c-9.4-10.1-23.4-14.1-37.5-12.1C400.8,330,411.8,333.9,418.4,342.9"/>
		<g opacity="0.69">
			<g>
				<path fill="#2F1A45" d="M39.4,438.5h9c3.5,0,5.9,0.8,7.8,3.1c2,2.3,2.7,5.1,2.7,10.1c0,3.5-0.4,6.2-1.6,8.6
					c-1.6,2.7-4.3,4.3-9,4.3h-3.1v16.8H39v-42.9H39.4z M45.7,458.8h3.1c5.1,0,5.1-2.7,5.1-7c0-3.9,0-7.4-4.7-7.4h-3.1v14.4H45.7z"/>
				<path fill="#2F1A45" d="M126.5,438.5h9.8c7.4,0,10.9,4.3,10.9,12.5c0,5.1-1.6,8.6-5.1,10.5l6.6,19.5h-6.6l-5.9-18h-3.5v18h-6.2
					V438.5z M132.7,457.7h3.5c4.3,0,5.1-2.3,5.1-6.6s-0.8-6.6-5.1-6.6h-3.5V457.7z"/>
				<path fill="#2F1A45" d="M214.3,448.7c0-7,5.1-10.5,10.1-10.5c5.1,0,10.1,3.5,10.1,10.5v22.2c0,7-5.1,10.5-10.1,10.5
					c-5.1,0-10.1-3.5-10.1-10.5V448.7z M220.1,471.3c0,3.1,2,4.3,4.3,4.3c2.3,0,4.3-1.6,4.3-4.3v-22.2c0-2.7-2-4.3-4.3-4.3
					c-2.3,0-4.3,1.6-4.3,4.3V471.3z"/>
				<path fill="#2F1A45" d="M302.9,438.5h5.5l7.8,22.6l0,0l7.8-22.6h5.9v42.5H324v-25.8l0,0l-5.9,18.3H315l-5.9-18.3l0,0v25.8h-6.2
					V438.5z"/>
				<path fill="#2F1A45" d="M398.9,438.5h6.2v42.5h-6.2V438.5z"/>
				<path fill="#2F1A45" d="M493,451h-6.2v-1.6c0-2.7-1.2-5.1-4.3-5.1c-3.5,0-4.3,2.7-4.3,5.5c0,3.1,0.4,4.3,3.5,5.9l4.7,2
					c5.5,2,6.2,5.5,6.2,11.7c0,7-2.7,12.5-10.5,12.5c-5.9,0-10.5-4.3-10.5-10.1v-2.3h6.2v2c0,2.3,1.2,4.3,4.3,4.3
					c4.3,0,4.3-2.3,4.3-6.2c0-4.7-0.4-5.1-3.5-6.6l-4.3-2c-5.1-2.3-6.6-5.5-6.6-10.9c0-6.6,3.5-11.7,10.5-11.7
					c6.2,0,10.1,5.1,10.1,9.8v3.1H493z"/>
				<path fill="#2F1A45" d="M560.5,438.5h18v5.9h-12.1v12.5h10.5v5.9h-10.5v12.5h12.1v6.2h-18V438.5z"/>
			</g>
		</g>
	</g>
</g>
</svg>
