<?xml version="1.0" encoding="utf-8"?>
<!-- Generator: Adobe Illustrator 18.0.0, SVG Export Plug-In . SVG Version: 6.00 Build 0)  -->
<!DOCTYPE svg PUBLIC "-//W3C//DTD SVG 1.1//EN" "http://www.w3.org/Graphics/SVG/1.1/DTD/svg11.dtd">
<svg version="1.1" id="Layer_1" xmlns="http://www.w3.org/2000/svg" xmlns:xlink="http://www.w3.org/1999/xlink" x="0px" y="0px"
	 viewBox="0 0 729.1 20.1" enable-background="new 0 0 729.1 20.1" xml:space="preserve">
<path fill="#74617D" d="M729,8.2l0.1,2c0,0.7-0.3,1.3-1,1.6c-9.7,3.1-21.9,5.1-36.6,6c-14.7,0.9-28.3,1.6-40.9,1.8
	c-2.8,0.1-6.8,0.1-12.1,0.1c-5.3,0-9.7,0-13.1,0.1c-17.5,0.1-31.3,0.2-41.5,0.3c-10.2,0.1-20.9,0-32.1-0.2
	c-24.5-0.3-47.1-0.6-67.8-0.8c-20.7-0.2-41.2-0.3-61.5-0.6c-20.3-0.2-40.5-0.5-60.4-0.7c-20-0.3-41.5-0.7-64.6-1.2
	c-29.4-0.8-62.2-1.5-98.3-2.3c-36.1-0.8-71.7-1.4-106.7-2l-6.3,0.1L0,11C3.5,10.1,10.3,9,20.4,7.5C30.5,6,40.1,4.8,49.2,3.9
	c7-0.7,14.8-1.2,23.6-1.7c8.7-0.4,16.9-0.8,24.7-1.1c1.4-0.2,3.5-0.4,6.3-0.5c2.8-0.2,5.9-0.3,9.4-0.3c12.6-0.3,27.8-0.3,45.7-0.1
	c17.9,0.2,35.9,0.6,54.1,1.1c18.2,0.5,36.1,1,53.6,1.5c17.5,0.5,31.9,0.9,43.1,1.2c15.4,0.3,32.2,0.5,50.4,0.8
	c18.2,0.3,35.7,0.6,52.6,1c1.4,0.1,3.5,0.2,6.3,0.3c2.8,0.1,5.6,0.2,8.4,0.2C451.9,6.5,480.1,7,512,7.5c31.9,0.6,62.5,0.7,91.9,0.4
	c5.6,0.3,11.9,0.5,18.9,0.5c7,0,13.7,0,19.9,0c9.1,0,18.9,0,29.4,0.1c10.5,0.1,20.7,0.2,30.5,0.1c2.8,0,6.8,0,12.1-0.1
	C720.1,8.4,724.8,8.3,729,8.2z"/>
</svg>
