<?xml version="1.0" encoding="utf-8"?>
<!-- Generator: Adobe Illustrator 18.0.0, SVG Export Plug-In . SVG Version: 6.00 Build 0)  -->
<!DOCTYPE svg PUBLIC "-//W3C//DTD SVG 1.1//EN" "http://www.w3.org/Graphics/SVG/1.1/DTD/svg11.dtd">
<svg version="1.1" id="Layer_1" xmlns="http://www.w3.org/2000/svg" xmlns:xlink="http://www.w3.org/1999/xlink" x="0px" y="0px"
	 viewBox="0 0 600.8 21" enable-background="new 0 0 600.8 21" xml:space="preserve">
<path fill="#74617D" d="M600.7,8.6l0.1,2.1c0,0.7-0.3,1.3-0.8,1.7c-8,3.2-18,5.3-30.1,6.3c-12.1,1-23.3,1.6-33.7,1.9
	c-2.3,0.1-5.6,0.1-9.9,0.1c-4.3,0-8,0-10.8,0.1c-14.4,0.1-25.8,0.2-34.2,0.3c-8.4,0.1-17.2,0-26.4-0.2c-20.2-0.4-38.8-0.6-55.8-0.8
	c-17-0.2-33.9-0.4-50.7-0.6c-16.7-0.2-33.3-0.5-49.8-0.7c-16.5-0.3-34.2-0.7-53.3-1.3c-24.3-0.8-51.3-1.6-81-2.4
	c-29.7-0.8-59.1-1.5-87.9-2L71,13.1L0,11.5c2.9-0.9,8.5-2.1,16.8-3.7C25.1,6.3,33,5,40.5,4.1c5.7-0.7,12.2-1.3,19.4-1.7
	c7.2-0.4,14-0.8,20.3-1.2c1.1-0.2,2.9-0.4,5.2-0.6c2.3-0.2,4.9-0.3,7.8-0.4c10.4-0.3,22.9-0.3,37.7-0.1c14.7,0.2,29.6,0.6,44.6,1.1
	c15,0.5,29.7,1,44.2,1.5C234.1,3.3,246,3.7,255.2,4c12.7,0.3,26.5,0.6,41.6,0.8c15,0.3,29.4,0.6,43.3,1.1c1.2,0.1,2.9,0.1,5.2,0.3
	c2.3,0.1,4.6,0.2,6.9,0.2c20.2,0.4,43.4,0.8,69.7,1.4c26.3,0.6,51.5,0.7,75.8,0.4c4.6,0.3,9.8,0.5,15.6,0.5c5.8,0,11.2,0,16.4,0
	c7.5,0,15.6,0,24.2,0.1c8.7,0.1,17,0.2,25.1,0.1c2.3,0,5.6,0,9.9-0.1C593.4,8.8,597.3,8.7,600.7,8.6z"/>
</svg>
