<?xml version="1.0" encoding="utf-8"?>
<!-- Generator: Adobe Illustrator 18.0.0, SVG Export Plug-In . SVG Version: 6.00 Build 0)  -->
<!DOCTYPE svg PUBLIC "-//W3C//DTD SVG 1.1//EN" "http://www.w3.org/Graphics/SVG/1.1/DTD/svg11.dtd">
<svg version="1.1" id="Layer_1" xmlns="http://www.w3.org/2000/svg" xmlns:xlink="http://www.w3.org/1999/xlink" x="0px" y="0px"
	 viewBox="0 0 284 15" enable-background="new 0 0 284 15" xml:space="preserve">
<path fill="#74617D" d="M284,6.1l0,1.5c0,0.5-0.1,0.9-0.4,1.2c-3.8,2.3-8.5,3.8-14.2,4.5c-5.7,0.7-11,1.2-15.9,1.4
	c-1.1,0-2.7,0.1-4.7,0.1c-2.1,0-3.8,0-5.1,0.1c-6.8,0.1-12.2,0.2-16.2,0.2c-4,0-8.1,0-12.5-0.2c-9.6-0.3-18.4-0.4-26.4-0.6
	c-8.1-0.1-16-0.3-24-0.4c-7.9-0.2-15.8-0.3-23.5-0.5c-7.8-0.2-16.2-0.5-25.2-0.9c-11.5-0.6-24.2-1.1-38.3-1.7
	c-14.1-0.6-27.9-1-41.6-1.5l-2.5,0.1L0,8.2c1.3-0.7,4-1.5,7.9-2.6c3.9-1.1,7.7-2,11.2-2.7c2.7-0.5,5.8-0.9,9.2-1.2
	c3.4-0.3,6.6-0.6,9.6-0.9c0.5-0.2,1.4-0.3,2.4-0.4c1.1-0.1,2.3-0.2,3.7-0.3C49,0,54.9-0.1,61.9,0.1c7,0.2,14,0.4,21.1,0.8
	C90.1,1.3,97,1.6,103.9,2c6.8,0.4,12.4,0.7,16.8,0.9c6,0.2,12.5,0.4,19.7,0.6c7.1,0.2,13.9,0.5,20.5,0.8c0.5,0,1.4,0.1,2.5,0.2
	c1.1,0.1,2.2,0.1,3.3,0.2c9.6,0.3,20.5,0.6,33,1c12.4,0.4,24.4,0.5,35.8,0.3c2.2,0.2,4.6,0.4,7.4,0.4c2.7,0,5.3,0,7.8,0
	c3.5,0,7.4,0,11.5,0.1c4.1,0.1,8.1,0.1,11.9,0.1c1.1,0,2.7,0,4.7-0.1C280.5,6.3,282.4,6.2,284,6.1z"/>
</svg>
