<?xml version="1.0" encoding="utf-8"?>
<!-- Generator: Adobe Illustrator 18.0.0, SVG Export Plug-In . SVG Version: 6.00 Build 0)  -->
<!DOCTYPE svg PUBLIC "-//W3C//DTD SVG 1.1//EN" "http://www.w3.org/Graphics/SVG/1.1/DTD/svg11.dtd">
<svg version="1.1" id="Layer_1" xmlns="http://www.w3.org/2000/svg" xmlns:xlink="http://www.w3.org/1999/xlink" x="0px" y="0px"
	 viewBox="0 0 887.5 16.8" enable-background="new 0 0 887.5 16.8" xml:space="preserve">
<path fill="#74617D" d="M0.1,10L0,8.3c0-0.6,0.4-1,1.2-1.4c11.8-2.6,26.7-4.2,44.5-5c17.9-0.8,34.5-1.3,49.8-1.5
	c3.4-0.1,8.3-0.1,14.7-0.1c6.4,0,11.8,0,16-0.1c21.3-0.1,38.2-0.2,50.5-0.2c12.4,0,25.4,0,39,0.2c29.9,0.3,57.4,0.5,82.5,0.6
	c25.2,0.1,50.1,0.3,74.8,0.5c24.7,0.2,49.3,0.4,73.6,0.6c24.3,0.2,50.5,0.6,78.7,1c35.9,0.6,75.7,1.3,119.7,1.9
	C689,5.4,732.3,6,774.9,6.4l7.7-0.1l104.9,1.3c-4.2,0.7-12.5,1.7-24.8,2.9c-12.3,1.2-24,2.2-35,3c-8.5,0.6-18.1,1-28.7,1.4
	c-10.6,0.3-20.6,0.7-30,1c-1.7,0.2-4.2,0.3-7.6,0.5c-3.4,0.1-7.2,0.2-11.5,0.3c-15.3,0.2-33.9,0.3-55.6,0.1
	c-21.8-0.2-43.7-0.5-65.9-0.9c-22.2-0.4-43.9-0.8-65.3-1.2c-21.3-0.4-38.8-0.7-52.5-1c-18.7-0.2-39.2-0.5-61.4-0.7
	c-22.2-0.2-43.5-0.5-64-0.9c-1.7-0.1-4.3-0.1-7.7-0.2c-3.4-0.1-6.8-0.2-10.2-0.2c-29.9-0.3-64.2-0.7-103-1.1
	c-38.8-0.5-76.1-0.6-111.9-0.4c-6.8-0.3-14.5-0.4-23.1-0.4c-8.5,0-16.6,0-24.3,0c-11.1,0-23,0-35.8-0.1C56.3,9.6,44,9.5,32,9.6
	c-3.4,0-8.3,0-14.7,0.1C10.9,9.8,5.2,9.9,0.1,10z"/>
</svg>
